<svg width="289" height="63" viewBox="0 0 289 63" fill="none" xmlns="http://www.w3.org/2000/svg">
<path d="M18.224 46.448C14.9387 46.448 11.9947 45.9147 9.392 44.848C6.78933 43.7813 4.69867 42.2027 3.12 40.112C1.584 38.0213 0.773334 35.504 0.688 32.56H12.336C12.5067 34.224 13.0827 35.504 14.064 36.4C15.0453 37.2533 16.3253 37.68 17.904 37.68C19.5253 37.68 20.8053 37.3173 21.744 36.592C22.6827 35.824 23.152 34.7787 23.152 33.456C23.152 32.3467 22.768 31.4293 22 30.704C21.2747 29.9787 20.3573 29.3813 19.248 28.912C18.1813 28.4427 16.6453 27.9093 14.64 27.312C11.7387 26.416 9.37067 25.52 7.536 24.624C5.70133 23.728 4.12267 22.4053 2.8 20.656C1.47733 18.9067 0.816 16.624 0.816 13.808C0.816 9.62667 2.33067 6.36267 5.36 4.016C8.38933 1.62667 12.336 0.431999 17.2 0.431999C22.1493 0.431999 26.1387 1.62667 29.168 4.016C32.1973 6.36267 33.8187 9.648 34.032 13.872H22.192C22.1067 12.4213 21.5733 11.2907 20.592 10.48C19.6107 9.62666 18.352 9.2 16.816 9.2C15.4933 9.2 14.4267 9.56266 13.616 10.288C12.8053 10.9707 12.4 11.9733 12.4 13.296C12.4 14.7467 13.0827 15.8773 14.448 16.688C15.8133 17.4987 17.9467 18.3733 20.848 19.312C23.7493 20.2933 26.096 21.232 27.888 22.128C29.7227 23.024 31.3013 24.3253 32.624 26.032C33.9467 27.7387 34.608 29.936 34.608 32.624C34.608 35.184 33.9467 37.5093 32.624 39.6C31.344 41.6907 29.4667 43.3547 26.992 44.592C24.5173 45.8293 21.5947 46.448 18.224 46.448ZM67.967 27.568C67.967 28.592 67.903 29.6587 67.775 30.768H43.007C43.1777 32.9867 43.8817 34.6933 45.119 35.888C46.399 37.04 47.9563 37.616 49.791 37.616C52.5217 37.616 54.4203 36.464 55.487 34.16H67.135C66.5377 36.5067 65.4497 38.6187 63.871 40.496C62.335 42.3733 60.3937 43.8453 58.047 44.912C55.7003 45.9787 53.0763 46.512 50.175 46.512C46.6763 46.512 43.5617 45.7653 40.831 44.272C38.1003 42.7787 35.967 40.6453 34.431 37.872C32.895 35.0987 32.127 31.856 32.127 28.144C32.127 24.432 32.8737 21.1893 34.367 18.416C35.903 15.6427 38.0363 13.5093 40.767 12.016C43.4977 10.5227 46.6337 9.776 50.175 9.776C53.631 9.776 56.703 10.5013 59.391 11.952C62.079 13.4027 64.1697 15.472 65.663 18.16C67.199 20.848 67.967 23.984 67.967 27.568ZM56.767 24.688C56.767 22.8107 56.127 21.3173 54.847 20.208C53.567 19.0987 51.967 18.544 50.047 18.544C48.2123 18.544 46.655 19.0773 45.375 20.144C44.1377 21.2107 43.3697 22.7253 43.071 24.688H56.767ZM66.1245 23.472C66.1245 19.0347 67.0845 15.088 69.0045 11.632C70.9245 8.13333 73.5912 5.424 77.0045 3.504C80.4605 1.54133 84.3645 0.559998 88.7165 0.559998C94.0498 0.559998 98.6152 1.968 102.412 4.784C106.21 7.6 108.748 11.44 110.028 16.304H97.9965C97.1005 14.4267 95.8205 12.9973 94.1565 12.016C92.5352 11.0347 90.6792 10.544 88.5885 10.544C85.2178 10.544 82.4872 11.7173 80.3965 14.064C78.3058 16.4107 77.2605 19.5467 77.2605 23.472C77.2605 27.3973 78.3058 30.5333 80.3965 32.88C82.4872 35.2267 85.2178 36.4 88.5885 36.4C90.6792 36.4 92.5352 35.9093 94.1565 34.928C95.8205 33.9467 97.1005 32.5173 97.9965 30.64H110.028C108.748 35.504 106.21 39.344 102.412 42.16C98.6152 44.9333 94.0498 46.32 88.7165 46.32C84.3645 46.32 80.4605 45.36 77.0045 43.44C73.5912 41.4773 70.9245 38.768 69.0045 35.312C67.0845 31.856 66.1245 27.9093 66.1245 23.472ZM129.787 46.512C126.288 46.512 123.131 45.7653 120.315 44.272C117.541 42.7787 115.344 40.6453 113.723 37.872C112.144 35.0987 111.355 31.856 111.355 28.144C111.355 24.4747 112.165 21.2533 113.786 18.48C115.408 15.664 117.627 13.5093 120.443 12.016C123.259 10.5227 126.416 9.776 129.915 9.776C133.413 9.776 136.571 10.5227 139.387 12.016C142.203 13.5093 144.421 15.664 146.043 18.48C147.664 21.2533 148.475 24.4747 148.475 28.144C148.475 31.8133 147.643 35.056 145.979 37.872C144.357 40.6453 142.117 42.7787 139.259 44.272C136.443 45.7653 133.285 46.512 129.787 46.512ZM129.787 37.04C131.877 37.04 133.648 36.272 135.099 34.736C136.592 33.2 137.339 31.0027 137.339 28.144C137.339 25.2853 136.613 23.088 135.163 21.552C133.755 20.016 132.005 19.248 129.915 19.248C127.781 19.248 126.011 20.016 124.603 21.552C123.195 23.0453 122.491 25.2427 122.491 28.144C122.491 31.0027 123.173 33.2 124.539 34.736C125.947 36.272 127.696 37.04 129.787 37.04ZM161.385 16.24C162.665 14.2773 164.265 12.7413 166.185 11.632C168.105 10.48 170.238 9.904 172.585 9.904V21.488H169.577C166.846 21.488 164.798 22.0853 163.433 23.28C162.067 24.432 161.385 26.48 161.385 29.424V46H150.441V10.288H161.385V16.24ZM210.2 27.568C210.2 28.592 210.136 29.6587 210.008 30.768H185.24C185.41 32.9867 186.114 34.6933 187.352 35.888C188.632 37.04 190.189 37.616 192.024 37.616C194.754 37.616 196.653 36.464 197.72 34.16H209.368C208.77 36.5067 207.682 38.6187 206.104 40.496C204.568 42.3733 202.626 43.8453 200.28 44.912C197.933 45.9787 195.309 46.512 192.408 46.512C188.909 46.512 185.794 45.7653 183.064 44.272C180.333 42.7787 178.2 40.6453 176.664 37.872C175.128 35.0987 174.36 31.856 174.36 28.144C174.36 24.432 175.106 21.1893 176.6 18.416C178.136 15.6427 180.269 13.5093 183 12.016C185.73 10.5227 188.866 9.776 192.408 9.776C195.864 9.776 198.936 10.5013 201.624 11.952C204.312 13.4027 206.402 15.472 207.896 18.16C209.432 20.848 210.2 23.984 210.2 27.568ZM199 24.688C199 22.8107 198.36 21.3173 197.08 20.208C195.8 19.0987 194.2 18.544 192.28 18.544C190.445 18.544 188.888 19.0773 187.608 20.144C186.37 21.2107 185.602 22.7253 185.304 24.688H199ZM230.117 36.72V46H224.549C220.581 46 217.488 45.04 215.269 43.12C213.05 41.1573 211.941 37.9787 211.941 33.584V19.376H207.589V10.288H211.941V1.584H222.885V10.288H230.053V19.376H222.885V33.712C222.885 34.7787 223.141 35.5467 223.653 36.016C224.165 36.4853 225.018 36.72 226.213 36.72H230.117ZM270.773 10.288L248.373 62.96H236.597L244.789 44.784L230.261 10.288H242.485L250.741 32.624L258.933 10.288H270.773ZM281.707 20.976C279.787 20.976 278.208 20.4213 276.971 19.312C275.776 18.16 275.179 16.752 275.179 15.088C275.179 13.3813 275.776 11.952 276.971 10.8C278.208 9.648 279.787 9.072 281.707 9.072C283.584 9.072 285.12 9.648 286.315 10.8C287.552 11.952 288.171 13.3813 288.171 15.088C288.171 16.752 287.552 18.16 286.315 19.312C285.12 20.4213 283.584 20.976 281.707 20.976ZM288.043 35.888L280.939 54.256H273.963L277.675 35.888H288.043Z" fill="white"/>
</svg>
